<?xml version="1.0" standalone="no"?><!DOCTYPE svg PUBLIC "-//W3C//DTD SVG 1.1//EN" "http://www.w3.org/Graphics/SVG/1.1/DTD/svg11.dtd"><svg class="icon" width="200px" height="200.00px" viewBox="0 0 1024 1024" version="1.1" xmlns="http://www.w3.org/2000/svg"><path d="M877.2 419h-61V166c0-21-17-38-38-38H245.8c-21 0-38 17-38 38v253h-61c-21 0-38 17-38 38v401c0 21 17 38 38 38h730.4c21 0 38-17 38-38V457c0-21-17-38-38-38zM267.8 188h488.4v231H701c-21 0-38 17-38 38v170.5H361V457c0-21-17-38-38-38h-55.2V188z m587.4 648H168.8V479H301v170.5c0 21 17 38 38 38h346c21 0 38-17 38-38V479h132.2v357z" /></svg>