<?xml version="1.0" standalone="no"?><!DOCTYPE svg PUBLIC "-//W3C//DTD SVG 1.1//EN" "http://www.w3.org/Graphics/SVG/1.1/DTD/svg11.dtd"><svg class="icon" width="200px" height="200.00px" viewBox="0 0 1024 1024" version="1.1" xmlns="http://www.w3.org/2000/svg"><path d="M509.29 928.29c-109.8 0-217.21-44.57-294.72-122.34-78.82-78.78-122.28-183.63-122.28-295.18 0-230.23 187.27-417.56 417.5-417.58 230.27 0 417.58 187.29 417.58 417.52 0 230.21-187.27 417.54-417.46 417.58h-0.62z m0.5-775.92c-197.6 0.02-358.33 160.81-358.33 358.4 0 95.74 37.29 185.71 104.98 253.38 66.53 66.73 158.65 104.96 252.84 104.96H509.86c197.6-0.02 358.33-160.81 358.33-358.4s-160.76-358.34-358.4-358.34z" fill="#999999" /><path d="M507.33 614.47c-16.33 0-29.59-13.25-29.59-29.59v-71.85c0-16.33 13.25-29.59 29.59-29.59 43.11 0 78.21-35.08 78.21-78.19s-35.1-78.19-78.21-78.19-78.21 35.08-78.21 78.19c0 16.33-13.25 29.59-29.59 29.59s-29.59-13.25-29.59-29.59c0-75.74 61.64-137.36 137.38-137.36S644.7 329.51 644.7 405.25c0 65.59-46.23 120.58-107.79 134.15v45.48c0 16.33-13.25 29.59-29.58 29.59zM509.87 658.73c-26.74 0-48.47 21.73-48.47 48.43 0 26.72 21.73 48.45 48.47 48.45 26.7 0 48.43-21.73 48.43-48.45 0-26.7-21.73-48.43-48.43-48.43z" fill="#999999" /></svg>